<?xml version="1.0" standalone="no"?><!DOCTYPE svg PUBLIC "-//W3C//DTD SVG 1.1//EN" "http://www.w3.org/Graphics/SVG/1.1/DTD/svg11.dtd"><svg t="1608288743044" class="icon" viewBox="0 0 1024 1024" version="1.1" xmlns="http://www.w3.org/2000/svg" p-id="874" xmlns:xlink="http://www.w3.org/1999/xlink" width="200" height="200"><defs><style type="text/css"></style></defs><path d="M914.505143 1023.268571H110.153143c-60.708571 0-109.714286-49.005714-109.714286-109.714285V109.860571c0-60.708571 49.005714-109.714286 109.714286-109.714285h803.693714c60.708571 0 109.714286 49.005714 109.714286 109.714285V913.554286c0.658286 60.708571-48.274286 109.714286-109.056 109.714285zM110.153143 56.978286a52.662857 52.662857 0 0 0-52.955429 52.882285V913.554286a52.662857 52.662857 0 0 0 52.955429 52.882285h803.693714a52.662857 52.662857 0 0 0 52.882286-52.882285V109.860571a52.662857 52.662857 0 0 0-52.882286-52.882285H110.153143z" fill="#cccccc" p-id="875"></path><path d="M850.505143 540.086857H174.08a28.525714 28.525714 0 0 1-28.672-28.672 28.525714 28.525714 0 0 1 28.672-28.745143h676.425143a28.525714 28.525714 0 0 1 28.745143 28.745143 28.525714 28.525714 0 0 1-28.745143 28.672z" fill="#cccccc" p-id="876"></path><path d="M512.292571 878.299429a28.525714 28.525714 0 0 1-28.745142-28.672v-675.84a28.525714 28.525714 0 0 1 28.745142-28.672c16.310857 0 28.745143 12.434286 28.745143 28.745142v676.352a28.452571 28.452571 0 0 1-28.745143 28.086858z" fill="#cccccc" p-id="877"></path></svg>